<?xml version="1.0" encoding="utf-8"?>
<!-- Generator: Adobe Illustrator 27.6.1, SVG Export Plug-In . SVG Version: 6.00 Build 0)  -->
<svg version="1.1" id="Layer_1" xmlns="http://www.w3.org/2000/svg" xmlns:xlink="http://www.w3.org/1999/xlink" x="0px" y="0px"
	 viewBox="0 0 128 128" style="enable-background:new 0 0 128 128;" xml:space="preserve">
<style type="text/css">
	.st0{fill-rule:evenodd;clip-rule:evenodd;fill:#FFFFFF;}
</style>
<g>
	<path class="st0" d="M100.6,72.9c-1.1,5.1-5.8,18.3-20.9,25.4l-6.1-6.8l-10.2,10.3c-11.8-0.2-22.8-5.8-29.8-15.3
		c1.1,0.3,2.2,0.6,3.3,0.6c1.7,0,3.5-0.6,3.5-3.4V56c0.1-2.5-1.9-4.6-4.4-4.7c-0.4,0-0.9,0-1.3,0.1c-4.7,1.1-8.5,12.9-8.5,12.9
		c-0.1-11,4.6-21.5,13-28.7c5.4-4.7,12.1-7.8,19.1-8.8c-5.2,2.9-8.1,7.7-8.1,11.8c0,6.5,3.9,5.7,5.1,4.7v37.4
		c0.2,0.5,0.5,0.9,0.8,1.3c1,1.4,2.7,2.3,4.5,2.3c3.9,0,9-4.5,9-4.5V49.5c0-3.1-2.3-6.8-4.6-8.1c0,0,4.3-0.8,7.6,1.8
		c0.6-0.8,1.3-1.5,2-2.2c7.7-7.6,15-9.8,21.1-10.8c0,0-11,8.7-11,20.3c0,8.7,0.2,29.8,0.2,29.8C89,84.2,95.1,78.5,100.6,72.9
		L100.6,72.9z"/>
	<path class="st0" d="M64,2.4C30,2.4,2.4,30,2.4,64S30,125.6,64,125.6S125.6,98,125.6,64S98,2.4,64,2.4z M64,123.2
		C31.3,123.2,4.8,96.7,4.8,64C4.9,31.3,31.3,4.8,64,4.9c32.7,0,59.1,26.5,59.1,59.2S96.7,123.2,64,123.2L64,123.2z"/>
</g>
</svg>
